<svg xmlns="http://www.w3.org/2000/svg" xmlns:xlink="http://www.w3.org/1999/xlink" viewBox="0 0 219.52 50.15"><defs><style>.cls-1{fill:none;}.cls-2{clip-path:url(#clip-path);}.cls-3{fill:#f3f3f2;}</style><clipPath id="clip-path" transform="translate(0 0)"><rect class="cls-1" width="219.52" height="50.15"/></clipPath></defs><title>BLANCO</title><g id="Capa_2" data-name="Capa 2"><g id="Capa_1-2" data-name="Capa 1"><g class="cls-2"><path class="cls-3" d="M73.51,37c-2.38,1.16-4.89,1.37-7.37,2.16a15.67,15.67,0,0,0-6.45,3.92c-1.56,1.58-2.61,3.51-4.41,4.86a11.29,11.29,0,0,1-5.77,2.16,11.5,11.5,0,0,1-11.18-6.58,1.89,1.89,0,0,1,1.15-2.39,1.94,1.94,0,0,1,2.39,1.15A7.61,7.61,0,0,0,52.66,45.2c1.77-1.14,2.72-3.06,4.17-4.54a20.27,20.27,0,0,1,6-4.25c2.08-.95,4.23-1.17,6.39-1.79a15.65,15.65,0,0,0,6.43-3.54A15.76,15.76,0,0,0,69.54,4.32a15.92,15.92,0,0,0-18.8,8.6c-1.84,4-1,8.46-2.4,12.62a22.87,22.87,0,0,1-4.51,7.57L48.45,37l7.22-8.51c.9-1.06,2-3,3.46-3.22a54.08,54.08,0,0,1,5.4-.44l.89-.07-9.42-8a1.9,1.9,0,0,1,1.06-3.3l14.18-1.6c2.4-.27,2.7,3.47.3,3.74l-9.81,1.11,9.57,8.12a1.9,1.9,0,0,1-1.06,3.3l-10,.82L50.09,40.88a1.9,1.9,0,0,1-2.64.22L40,34.73a1.89,1.89,0,0,1-.22-2.64c3.43-3.73,5.76-7.71,5.86-12.89A19.5,19.5,0,1,1,73.51,37" transform="translate(0 0)"/><path class="cls-3" d="M33.68,12.74a6.38,6.38,0,0,1,4.75,2,6.66,6.66,0,0,1,2,4.82,6.77,6.77,0,0,1-1.89,4.78,6.1,6.1,0,0,1-4.62,2H4.43v6.77a2.15,2.15,0,0,1-.65,1.58,2.1,2.1,0,0,1-1.56.66A2.11,2.11,0,0,1,.65,34.7,2.19,2.19,0,0,1,0,33.12V15.27a2.51,2.51,0,0,1,.86-2A3.53,3.53,0,0,1,3,12.74Zm-.09,4.49H4.43v4.69H33.59a2.06,2.06,0,0,0,1.61-.75,2.27,2.27,0,0,0,.61-1.73,2.37,2.37,0,0,0-.69-1.58,2.08,2.08,0,0,0-1.53-.63" transform="translate(0 0)"/><path class="cls-3" d="M128.93,15a2.26,2.26,0,0,1-.63,1.6,2.05,2.05,0,0,1-1.56.68H96.17a3.41,3.41,0,0,0-2,.54,2.07,2.07,0,0,0-.87,1.76A2.37,2.37,0,0,0,94,21.18a2.1,2.1,0,0,0,1.6.74h26.88a6.68,6.68,0,0,1,4.88,2,6.4,6.4,0,0,1,2,4.84,6.73,6.73,0,0,1-6.73,6.59H91.57A2,2,0,0,1,90,34.69a2.29,2.29,0,0,1-.62-1.6,2.09,2.09,0,0,1,.72-1.61,2.39,2.39,0,0,1,1.7-.67h31a1.82,1.82,0,0,0,1.47-.72,2.36,2.36,0,0,0,.52-1.64,2.41,2.41,0,0,0-.62-1.48,1.8,1.8,0,0,0-1.37-.62H95.71a6.58,6.58,0,0,1-4.4-1.81A6.14,6.14,0,0,1,89,19.73a7,7,0,0,1,1.9-5,6.43,6.43,0,0,1,5-2h30.91a2.09,2.09,0,0,1,1.56.64,2.19,2.19,0,0,1,.63,1.57" transform="translate(0 0)"/><path class="cls-3" d="M138.7,14.72v14a2,2,0,0,0,.72,1.61,2.5,2.5,0,0,0,1.67.49h25.16a3.18,3.18,0,0,0,2.42-.74,2.28,2.28,0,0,0,.52-1.07c0-.17,0-.59,0-1.24V14.69a1.73,1.73,0,0,1,.72-1.46,2.38,2.38,0,0,1,1.67-.49c1.45.07,2.18.74,2.18,2V28.54A6.56,6.56,0,0,1,172,33.17a6.79,6.79,0,0,1-5.24,2.19h-26a6.28,6.28,0,0,1-4.72-2.13,6.55,6.55,0,0,1-1.82-4.66V14.69a1.75,1.75,0,0,1,.66-1.39,2.26,2.26,0,0,1,1.53-.56,2.37,2.37,0,0,1,1.57.57,1.8,1.8,0,0,1,.67,1.41" transform="translate(0 0)"/><path class="cls-3" d="M212.81,12.74a6.37,6.37,0,0,1,4.75,2,6.62,6.62,0,0,1,2,4.82,6.77,6.77,0,0,1-1.89,4.78,6.07,6.07,0,0,1-4.62,2H183.57v6.77a2.19,2.19,0,0,1-.65,1.58,2.2,2.2,0,0,1-3.14,0,2.19,2.19,0,0,1-.65-1.58V15.27a2.49,2.49,0,0,1,.87-2,3.49,3.49,0,0,1,2.16-.51Zm-.08,4.49H183.57v4.69h29.16a2.07,2.07,0,0,0,1.61-.75,2.44,2.44,0,0,0-.09-3.31,2.08,2.08,0,0,0-1.52-.63" transform="translate(0 0)"/></g></g></g></svg>