<svg xmlns="http://www.w3.org/2000/svg" xmlns:xlink="http://www.w3.org/1999/xlink" viewBox="0 0 438.76 100.94"><defs><style>.cls-1{fill:none;}.cls-2{clip-path:url(#clip-path);}.cls-3{fill:url(#Degradado_sin_nombre);}.cls-4{clip-path:url(#clip-path-2);}.cls-5{fill:url(#Degradado_sin_nombre_5);}.cls-6{clip-path:url(#clip-path-3);}.cls-7{fill:url(#Degradado_sin_nombre_5-2);}.cls-8{clip-path:url(#clip-path-4);}.cls-9{fill:url(#Degradado_sin_nombre_5-3);}.cls-10{clip-path:url(#clip-path-5);}.cls-11{fill:url(#Degradado_sin_nombre_5-4);}</style><clipPath id="clip-path" transform="translate(0 0)"><path class="cls-1" d="M104.71,9.29A39.47,39.47,0,0,0,91.12,38.37c-.2,10.36-4.86,18.32-11.71,25.76a3.8,3.8,0,0,0,.43,5.29l15,12.72a3.8,3.8,0,0,0,5.28-.43L120.34,57.9l20-1.65a3.79,3.79,0,0,0,2.12-6.59L123.39,33.43,143,31.21c4.79-.53,4.19-8-.62-7.47L114.05,27a3.79,3.79,0,0,0-2.12,6.59l18.83,16-1.78.14c-3.53.29-7.3.24-10.79.89-2.94.54-5.11,4.31-6.92,6.43L96.83,74l-9.22-7.82a45.59,45.59,0,0,0,9-15.14c2.73-8.31,1.13-17.15,4.81-25.22a31.48,31.48,0,0,1,60,16.37,31.45,31.45,0,0,1-22.94,27c-4.33,1.23-8.63,1.67-12.78,3.58a40.11,40.11,0,0,0-12.07,8.49c-2.89,3-4.8,6.79-8.34,9.07A15.18,15.18,0,0,1,83.7,84.52c-.92-1.82-2.7-3-4.79-2.29-1.72.58-3.2,3-2.29,4.78,4.26,8.45,12.7,13.93,22.34,13.15a22.55,22.55,0,0,0,11.53-4.32c3.6-2.71,5.71-6.55,8.82-9.72a31.16,31.16,0,0,1,12.9-7.83c4.94-1.57,10-2,14.71-4.31a39.09,39.09,0,0,0,19.71-21.64c5.91-16.46.22-35.63-14.43-45.54A39.83,39.83,0,0,0,129.9,0a38.18,38.18,0,0,0-25.19,9.29"/></clipPath><linearGradient id="Degradado_sin_nombre" x1="7.53" y1="261.07" x2="8.53" y2="261.07" gradientTransform="matrix(0, 100.23, 100.23, 0, -26043.27, -755.06)" gradientUnits="userSpaceOnUse"><stop offset="0" stop-color="#f5ad17"/><stop offset="1" stop-color="#ee8c1f"/></linearGradient><clipPath id="clip-path-2" transform="translate(0 0)"><path class="cls-1" d="M8.86,34.43H67.14a4.13,4.13,0,0,1,3,1.27,4.65,4.65,0,0,1,1.38,3.16,4.59,4.59,0,0,1-1.2,3.45,4.16,4.16,0,0,1-3.23,1.5H8.86ZM6,25.46c-2,0-3.47.34-4.31,1a5,5,0,0,0-1.73,4V66.19a4.36,4.36,0,0,0,1.3,3.17,4.21,4.21,0,0,0,3.13,1.32,4.25,4.25,0,0,0,3.14-1.32,4.4,4.4,0,0,0,1.29-3.17V52.67H67.72a12.14,12.14,0,0,0,9.23-4,13.47,13.47,0,0,0,3.77-9.55,13.25,13.25,0,0,0-3.91-9.63,12.77,12.77,0,0,0-9.49-4Z"/></clipPath><linearGradient id="Degradado_sin_nombre_5" x1="5.58" y1="260.95" x2="6.58" y2="260.95" gradientTransform="matrix(0, 45.22, 45.22, 0, -11760.35, -226.9)" gradientUnits="userSpaceOnUse"><stop offset="0" stop-color="#0085c8"/><stop offset="1" stop-color="#003464"/></linearGradient><clipPath id="clip-path-3" transform="translate(0 0)"><path class="cls-1" d="M191.53,25.46a12.94,12.94,0,0,0-9.89,4.05,14,14,0,0,0-3.8,9.93,12.31,12.31,0,0,0,4.66,9.61,13.21,13.21,0,0,0,8.8,3.62h54.14a3.55,3.55,0,0,1,2.74,1.24,4.68,4.68,0,0,1,1.23,3,4.58,4.58,0,0,1-1,3.28,3.61,3.61,0,0,1-2.94,1.44h-61.9a4.86,4.86,0,0,0-3.4,1.32,4.21,4.21,0,0,0-1.44,3.22,4.61,4.61,0,0,0,1.24,3.2A4,4,0,0,0,183,70.68H245.1A13.46,13.46,0,0,0,258.56,57.5a12.69,12.69,0,0,0-3.94-9.66,13.31,13.31,0,0,0-9.75-4H191.13a4.19,4.19,0,0,1-3.19-1.47,4.74,4.74,0,0,1-1.35-3.3,4.13,4.13,0,0,1,1.72-3.52,6.89,6.89,0,0,1,3.92-1.09h61.1a4.08,4.08,0,0,0,3.1-1.35,4.5,4.5,0,0,0,1.27-3.19,4.3,4.3,0,0,0-1.27-3.14,4.17,4.17,0,0,0-3.1-1.29Z"/></clipPath><linearGradient id="Degradado_sin_nombre_5-2" x1="5.58" y1="260.95" x2="6.58" y2="260.95" gradientTransform="matrix(0, 45.22, 45.22, 0, -11582.51, -226.9)" xlink:href="#Degradado_sin_nombre_5"/><clipPath id="clip-path-4" transform="translate(0 0)"><path class="cls-1" d="M339.66,26.43a3.5,3.5,0,0,0-1.44,2.94V55.49c0,1.3,0,2.13-.06,2.47a4.43,4.43,0,0,1-1,2.13q-1.33,1.5-4.83,1.5H282a5,5,0,0,1-3.34-1,4.1,4.1,0,0,1-1.44-3.22v-28a3.55,3.55,0,0,0-1.35-2.82,4.66,4.66,0,0,0-3.13-1.15,4.56,4.56,0,0,0-3.05,1.12,3.5,3.5,0,0,0-1.33,2.79V57.1A13.11,13.11,0,0,0,272,66.42a12.58,12.58,0,0,0,9.43,4.26h51.9a13.58,13.58,0,0,0,10.47-4.37A13.16,13.16,0,0,0,347.37,57V29.48q0-3.8-4.37-4l-.36,0a4.79,4.79,0,0,0-3,1"/></clipPath><linearGradient id="Degradado_sin_nombre_5-3" x1="5.58" y1="260.95" x2="6.58" y2="260.95" gradientTransform="matrix(0, 45.23, 45.23, 0, -11495.67, -227.01)" xlink:href="#Degradado_sin_nombre_5"/><clipPath id="clip-path-5" transform="translate(0 0)"><path class="cls-1" d="M366.9,34.43h58.29a4.11,4.11,0,0,1,3,1.27,4.71,4.71,0,0,1,1.39,3.16,4.63,4.63,0,0,1-1.21,3.45,4.16,4.16,0,0,1-3.22,1.5H366.9Zm-2.82-9c-2,0-3.47.34-4.31,1a5,5,0,0,0-1.73,4V66.19a4.36,4.36,0,0,0,1.3,3.17,4.38,4.38,0,0,0,6.27,0,4.4,4.4,0,0,0,1.29-3.17V52.67h58.86a12.16,12.16,0,0,0,9.24-4,13.5,13.5,0,0,0,3.76-9.55,13.25,13.25,0,0,0-3.91-9.63,12.77,12.77,0,0,0-9.49-4Z"/></clipPath><linearGradient id="Degradado_sin_nombre_5-4" x1="5.58" y1="260.95" x2="6.58" y2="260.95" gradientTransform="matrix(0, 45.22, 45.22, 0, -11402.31, -226.9)" xlink:href="#Degradado_sin_nombre_5"/></defs><title>GRADIENT</title><g id="Capa_2" data-name="Capa 2"><g id="Capa_1-2" data-name="Capa 1"><g class="cls-2"><rect class="cls-3" x="75.71" width="96.83" height="100.94"/></g><g class="cls-4"><rect class="cls-5" y="25.45" width="80.72" height="45.22"/></g><g class="cls-6"><rect class="cls-7" x="177.84" y="25.45" width="80.8" height="45.22"/></g><g class="cls-8"><rect class="cls-9" x="268.37" y="25.44" width="79" height="45.23"/></g><g class="cls-10"><rect class="cls-11" x="358.04" y="25.45" width="80.72" height="45.22"/></g></g></g></svg>