<svg xmlns="http://www.w3.org/2000/svg" xmlns:xlink="http://www.w3.org/1999/xlink" viewBox="0 0 92.59 100.23"><defs><style>.cls-1{fill:none;}.cls-2{clip-path:url(#clip-path);}.cls-3{fill:#002b45;}</style><clipPath id="clip-path" transform="translate(0)"><rect class="cls-1" width="92.59" height="100.23"/></clipPath></defs><title>ISO AZUL</title><g id="Capa_2" data-name="Capa 2"><g id="Capa_1-2" data-name="Capa 1"><g class="cls-2"><path class="cls-3" d="M70.58,74c-4.75,2.31-9.77,2.74-14.72,4.31A31.28,31.28,0,0,0,43,86.12c-3.11,3.17-5.21,7-8.81,9.72a22.55,22.55,0,0,1-11.53,4.32C13,100.94,4.53,95.46.28,87c-.91-1.81.57-4.2,2.29-4.78,2.09-.72,3.86.47,4.78,2.29a15.2,15.2,0,0,0,21.56,5.82c3.54-2.28,5.44-6.12,8.34-9.07a40.11,40.11,0,0,1,12.07-8.49c4.15-1.91,8.45-2.35,12.78-3.58a31.49,31.49,0,0,0,.55-60.56A31.82,31.82,0,0,0,25.08,25.82C21.39,33.89,23,42.73,20.27,51a45.76,45.76,0,0,1-9,15.14L20.49,74,34.93,57c1.81-2.12,4-5.89,6.92-6.43,3.49-.65,7.25-.6,10.79-.88l1.77-.15-18.82-16A3.79,3.79,0,0,1,37.71,27L66,23.74c4.81-.54,5.41,6.94.62,7.47L47.05,33.43,66.17,49.66a3.79,3.79,0,0,1-2.12,6.59L44,57.9,23.78,81.71a3.8,3.8,0,0,1-5.28.43L3.5,69.42a3.8,3.8,0,0,1-.43-5.29c6.85-7.44,11.51-15.4,11.71-25.76A39.43,39.43,0,0,1,28.37,9.29C41.64-2.28,61.43-3,75.86,6.8,90.51,16.71,96.2,35.88,90.29,52.34A39.12,39.12,0,0,1,70.58,74" transform="translate(0)"/></g></g></g></svg>